# AST/ASF file generated using VICON BodyLanguage
# -----------------------------------------------
:version 1.10
:name VICON
:units
  mass 1.0
  length 0.45
  angle deg
:documentation
   .ast/.asf automatically generated from VICON data using
   VICON BodyBuilder and BodyLanguage model FoxedUp or BRILLIANT.MOD
:root
   order TX TY TZ RX RY RZ
   axis XYZ
   position 0 0 0  
   orientation 0 0 0 
:bonedata
  begin
     id 1 
     name lhipjoint
     direction 0.630082 -0.636569 0.44472 
     length 2.82754 
     axis 0 0 0  XYZ
  end
  begin
     id 2 
     name lfemur
     direction 0.34202 -0.939693 0  
     length 7.26371  
     axis 0 0 20  XYZ
    dof rx ry rz
    limits (-160.0 20.0)
           (-70.0 70.0)
           (-60.0 70.0)
  end
  begin
     id 3 
     name ltibia
     direction 0.34202 -0.939693 0   
     length 7.88616   
     axis 0 0 20   XYZ
    dof rx
    limits (-10.0 170.0)
  end
  begin
     id 4 
     name lfoot
     direction 0.0603448 -0.165796 0.984312   
     length 1.77861   
     axis -90 7.62852e-016 20   XYZ
    dof rx rz
    limits (-45.0 90.0)
           (-70.0 20.0)
  end
  begin
     id 5 
     name ltoes
     direction 1.53577e-011 -4.21876e-011 1   
     length 0.902235   
     axis -90 7.62852e-016 20   XYZ
    dof rx
    limits (-90.0 20.0)
  end
  begin
     id 6 
     name rhipjoint
     direction -0.656778 -0.61817 0.431866   
     length 2.9117  
     axis 0 0 0  XYZ 
  end
  begin
     id 7 
     name rfemur
     direction -0.34202 -0.939693 0   
     length 6.81603   
     axis 0 0 -20   XYZ
    dof rx ry rz
    limits (-160.0 20.0)
           (-70.0 70.0)
           (-70.0 60.0)
  end
  begin
     id 8 
     name rtibia
     direction -0.34202 -0.939693 0   
     length 8.05997   
     axis 0 0 -20   XYZ
    dof rx
    limits (-10.0 170.0)
 end
 begin
     id 9 
     name rfoot
     direction -0.0862404 -0.236944 0.967688   
     length 1.84899  
     axis -90 -7.62852e-016 -20   XYZ
    dof rx rz
    limits (-45.0 90.0)
           (-20.0 70.0)
  end
  begin
     id 10 
     name rtoes
     direction -1.53561e-011 -4.21798e-011 1   
     length 0.931579   
     axis -90 -7.62852e-016 -20   XYZ
    dof rx
    limits (-90.0 20.0)
  end
  begin
     id 11 
     name lowerback
     direction -0.0110203 0.991769 -0.127564   
     length 2.05686   
     axis 0 0 0   XYZ
    dof rx ry rz
    limits (-20.0 45.0)
           (-30.0 30.0)
           (-30.0 30.0)
  end
  begin
     id 12 
     name upperback
     direction 0.0109719 0.99993 -0.00432479   
     length 2.06234   
     axis 0 0 0   XYZ
    dof rx ry rz
    limits (-20.0 45.0)
           (-30.0 30.0)
           (-30.0 30.0)
  end
  begin
     id 13 
     name thorax
     direction 0.0173308 0.998351 0.0547306   
     length 2.09856   
     axis 0 0 0   XYZ
    dof rx ry rz
    limits (-20.0 45.0)
           (-30.0 30.0)
           (-30.0 30.0)
  end
  begin
     id 14 
     name lowerneck
     direction -0.0311736 0.989033 0.144366   
     length 1.98151   
     axis 0 0 0   XYZ
    dof rx ry rz
    limits (-20.0 45.0)
           (-30.0 30.0)
           (-30.0 30.0)
  end
  begin
     id 15 
     name upperneck
     direction 0.0421057 0.975772 -0.214698   
     length 2.01457   
     axis 0 0 0   XYZ
    dof rx ry rz
    limits (-20.0 45.0)
           (-30.0 30.0)
           (-30.0 30.0)
  end
  begin
     id 16
     name head
     direction 0.0136911 0.995958 -0.0887718  
     length 2.03562  
     axis 0 0 0   XYZ
    dof rx ry rz
    limits (-20.0 45.0)
           (-30.0 30.0)
           (-30.0 30.0)
  end
  begin
     id 17 
     name lclavicle
     direction 0.915335 0.396201 0.0720134  
     length 4.16217  
     axis 0 0 0   XYZ
    dof ry rz
    limits (-20.0 10.0)
           (0.0 20.0)
  end
  begin
     id 18 
     name lhumerus
     direction 1 -4.48965e-011 6.383e-018   
     length 4.93042   
     axis -180 -30 -90   XYZ
    dof rx ry rz
    limits (-60.0 90.0)
           (-90.0 90.0)
           (-90.0 90.0)
  end
  begin
     id 19
     name lradius
     direction 1 -4.48972e-011 8.8689e-027   
     length 3.68177   
     axis -180 -30 -90   XYZ
    dof rx
    limits (-10.0 170.0)
  end
  begin
     id 20
     name lwrist
     direction 1 -4.48953e-011 1.17971e-026   
     length 1.84089   
     axis -7.69454e-015 90 90   XYZ
    dof ry
    limits (-180.0 0.0)
 end
  begin
     id 21 
     name lhand
     direction 1 -4.49027e-011 2.35802e-026   
     length 0.721479   
     axis -1.50533e-014 90 90   XYZ
    dof rx rz
    limits (-90.0 90.0)
           (-45.0 45.0)
  end
  begin
     id 22 
     name lfingers
     direction 1 -4.48915e-011 4.72027e-026   
     length 0.581675   
     axis -3.01059e-014 90 90   XYZ
    dof rx
    limits (0.0 90.0)
  end
  begin
     id 23
     name lthumb
     direction 0.707107 -6.34948e-011 0.707107   
     length 0.835172   
     axis -90 45 -5.12164e-014   XYZ
    dof rx rz
    limits (-45.0 45.0)
           (-45.0 45.0)
  end
  begin
     id 24 
     name rclavicle
     direction -0.882781 0.469197 0.0234974   
     length 3.95647  
     axis 0 0 0   XYZ 
    dof ry rz
    limits (-10.0 20.0)
           (-20.0 0.0)
  end
  begin
     id 25 
     name rhumerus
     direction -1 -4.48965e-011 -1.54906e-018  
     length 5.07905   
     axis -180 30 90   XYZ
    dof rx ry rz
    limits (-90.0 60.0)
           (-90.0 90.0)
           (-90.0 90.0)
  end
  begin
     id 26 
     name rradius
     direction -1 -4.48972e-011 5.47489e-027   
     length 3.54394   
     axis -180 30 90   XYZ
    dof rx
    limits (-10.0 170.0)
  end
  begin
     id 27 
     name rwrist
     direction -1 -4.48955e-011 1.17969e-026   
     length 1.77197   
     axis -7.69454e-015 -90 -90   XYZ
    dof ry
    limits (-180.0 0.0)
  end
  begin
     id 28
     name rhand
     direction -1 -4.48982e-011 2.35888e-026   
     length 0.681156   
     axis -1.50533e-014 -90 -90   XYZ
    dof rx rz
    limits (-90.0 90.0)
           (-45.0 45.0)
  end
  begin
     id 29
     name rfingers
     direction -1 -4.48955e-011 4.71877e-026   
     length 0.549165   
     axis -3.01059e-014 -90 -90   XYZ
    dof rx
    limits (0.0 90.0)
  end
  begin
     id 30
     name rthumb
     direction -0.707107 -6.3491e-011 0.707107   
     length 0.788495   
     axis -90 -45 5.12164e-014   XYZ
    dof rx rz
    limits (-45.0 45.0)
           (-45.0 45.0)
  end
:hierarchy
  begin
    root lhipjoint rhipjoint lowerback
    lhipjoint lfemur
    lfemur ltibia
    ltibia lfoot
    lfoot ltoes
    rhipjoint rfemur
    rfemur rtibia
    rtibia rfoot
    rfoot rtoes
    lowerback upperback
    upperback thorax
    thorax lowerneck lclavicle rclavicle
    lowerneck upperneck
    upperneck head
    lclavicle lhumerus
    lhumerus lradius
    lradius lwrist
    lwrist lhand lthumb
    lhand lfingers
    rclavicle rhumerus
    rhumerus rradius
    rradius rwrist
    rwrist rhand rthumb
    rhand rfingers
  end

#!OML:ASF H:\Bending\Project 1\Capture day 1\Session 1\Subject.ASF
:FULLY-SPECIFIED
:DEGREES
360
root -9.81773 18.1571 -16.3926 -159.245 87.1692 -167.491
lowerback 6.60525 -0.563435 1.2087
upperback -2.83946 -0.472361 2.21102
thorax -6.67066 -0.219563 1.69061
lowerneck -25.2228 -3.61021 -5.1627
upperneck 33.2964 -2.78814 0.764946
head 16.2675 -1.5112 0.689766
rclavicle 9.93923e-016 7.15625e-015
rhumerus -0.224555 17.3356 -76.8015
rradius 58.8881
rwrist -2.11984
rhand -21.8075 -27.5428
rfingers 7.12502
rthumb 4.59462 -57.4729
lclavicle 9.93923e-016 7.15625e-015
lhumerus 3.92769 -25.2287 80.2673
lradius 56.5924
lwrist 23.8146
lhand -42.1117 17.9839
lfingers 7.12502
lthumb -15.0027 47.4204
rfemur 0.189509 -4.58697 15.6257
rtibia 1.59028e-015
rfoot -7.32942 -15.5326
rtoes 3.76117
lfemur -11.3612 -12.4657 -12.1436
ltibia 20.5827
lfoot -21.3646 11.2184
ltoes -0.316805
361
root -9.78614 18.1518 -16.3911 -158.853 87.2211 -167.052
lowerback 6.46827 -0.511056 1.20015
upperback -2.87582 -0.40849 2.16845
thorax -6.63171 -0.188846 1.64152
lowerneck -25.1368 -3.69461 -5.24934
upperneck 33.2844 -2.92833 0.887818
head 16.2518 -1.56104 0.729475
rclavicle -9.0944e-015 -1.74931e-014
rhumerus -3.89419 17.3758 -77.5111
rradius 59.2484
rwrist -1.44538
rhand -21.5128 -27.5587
rfingers 7.12502
rthumb 4.87922 -57.4826
lclavicle -9.0944e-015 -1.74931e-014
lhumerus 0.148396 -24.2078 81.914
lradius 57.9179
lwrist 23.9247
lhand -42.1026 18.7962
lfingers 7.12502
lthumb -14.994 48.2333
rfemur 0.373884 -4.52752 15.6167
rtibia -2.38542e-014
rfoot -7.65413 -15.4829
rtoes 4.94987
lfemur -11.1268 -12.6645 -12.1713
ltibia 20.5243
lfoot -21.5988 11.4308
ltoes -0.483007
362
root -9.75499 18.1463 -16.3903 -158.068 87.3137 -166.23
lowerback 6.34516 -0.464775 1.16061
upperback -2.9129 -0.35397 2.14241
thorax -6.60097 -0.160894 1.62874
lowerneck -25.0797 -3.75748 -5.31629
upperneck 33.2856 -3.0382 0.996649
head 16.2475 -1.59814 0.765814
rclavicle -2.08724e-015 7.95139e-015
rhumerus -7.50705 17.5274 -78.2613
rradius 59.0092
rwrist -1.10511
rhand -21.1891 -27.6779
rfingers 7.12502
rthumb 5.19178 -57.5943
lclavicle -2.08724e-015 7.95139e-015
lhumerus -3.63989 -22.9061 83.4983
lradius 59.0272
lwrist 24.2001
lhand -42.4184 19.924
lfingers 7.12502
lthumb -15.2982 49.3382
rfemur 0.523074 -4.42314 15.6281
rtibia 3.18055e-015
rfoot -7.83448 -15.4925
rtoes 5.28502
lfemur -10.9013 -12.8063 -12.1975
ltibia 20.4783
lfoot -21.8449 11.6269
ltoes -0.522133
363
root -9.72466 18.1406 -16.3906 -156.832 87.4577 -164.962
lowerback 6.23307 -0.409957 1.09407
upperback -2.9456 -0.2893 2.12902
thorax -6.57196 -0.126424 1.64344
lowerneck -25.0544 -3.81312 -5.38511
upperneck 33.3062 -3.13795 1.11464
head 16.2604 -1.6299 0.808316
rclavicle 2.08724e-015 3.18055e-015
rhumerus -11.0795 17.7495 -79.0466
rradius 58.2691
rwrist -1.17305
rhand -20.8597 -27.9059
rfingers 7.12502
rthumb 5.50979 -57.8143
lclavicle 2.08724e-015 3.18055e-015
lhumerus -7.35318 -21.4059 84.9708
lradius 59.8652
lwrist 24.5139
lhand -42.8933 21.0783
lfingers 7.12502
lthumb -15.7556 50.4571
rfemur 0.634615 -4.26374 15.6524
rtibia -9.54166e-015
rfoot -7.85264 -15.567
rtoes 4.65942
lfemur -10.6754 -12.9262 -12.2311
ltibia 20.4412
lfoot -22.1071 11.8409
ltoes -0.43614
364
root -9.69555 18.1348 -16.3922 -155.134 87.6522 -163.234
lowerback 6.13594 -0.331268 1.00756
upperback -2.97377 -0.193581 2.12272
thorax -6.54742 -0.0755966 1.67346
lowerneck -25.0436 -3.87935 -5.4818
upperneck 33.3386 -3.25134 1.26195
head 16.2848 -1.66632 0.865403
rclavicle 2.43511e-015 -1.98785e-014
rhumerus -14.6186 17.9075 -79.8596
rradius 57.129
rwrist -1.55703
rhand -20.516 -28.2132
rfingers 7.12502
rthumb 5.84163 -58.1127
lclavicle 2.43511e-015 -1.98785e-014
lhumerus -10.9299 -19.7954 86.3141
lradius 60.359
lwrist 24.6838
lhand -43.2362 21.9734
lfingers 7.12502
lthumb -16.0858 51.3258
rfemur 0.716455 -4.05176 15.6745
rtibia 0
rfoot -7.75088 -15.6839
rtoes 3.33217
lfemur -10.4401 -13.0446 -12.2814
ltibia 20.4058
lfoot -22.3753 12.0896
ltoes -0.286461
365
root -9.66801 18.1294 -16.3948 -153.008 87.8808 -161.074
lowerback 6.05537 -0.221923 0.914982
upperback -2.99694 -0.0570867 2.11468
thorax -6.52832 -0.00446488 1.70066
lowerneck -25.021 -3.9676 -5.62018
upperneck 33.3657 -3.3946 1.44778
head 16.3079 -1.7145 0.940275
rclavicle -1.78906e-015 2.3059e-014
rhumerus -18.0883 17.7949 -80.6776
rradius 55.6526
rwrist -2.00599
rhand -20.1133 -28.5299
rfingers 7.12502
rthumb 6.23043 -58.4183
lclavicle -1.78906e-015 2.3059e-014
lhumerus -14.3313 -18.1482 87.5153
lradius 60.4423
lwrist 24.5362
lhand -43.1744 22.4244
lfingers 7.12502
lthumb -16.0263 51.7816
rfemur 0.787422 -3.80539 15.678
rtibia 2.22639e-014
rfoot -7.62725 -15.7994
rtoes 1.89759
lfemur -10.1903 -13.1589 -12.3519
ltibia 20.3632
lfoot -22.6269 12.3604
ltoes -0.15589
